<?xml version="1.0" standalone="no"?>
<!DOCTYPE svg PUBLIC "-//W3C//DTD SVG 20010904//EN"
 "http://www.w3.org/TR/2001/REC-SVG-20010904/DTD/svg10.dtd">
<svg version="1.0" xmlns="http://www.w3.org/2000/svg"
 width="260.000000pt" height="260.000000pt" viewBox="0 0 260.000000 260.000000"
 preserveAspectRatio="xMidYMid meet">
<metadata>
Created by potrace 1.11, written by Peter Selinger 2001-2013
</metadata>
<g transform="translate(0.000000,260.000000) scale(0.100000,-0.100000)"
fill="#000000" stroke="none">
<path d="M0 1300 l0 -1300 1300 0 1300 0 0 1300 0 1300 -1300 0 -1300 0 0
-1300z m857 1075 c391 -145 391 -145 397 -161 3 -9 6 -85 6 -170 0 -136 -2
-154 -16 -154 -9 0 -163 77 -343 172 -179 94 -377 198 -439 231 -78 40 -112
64 -110 74 2 9 48 32 118 59 63 23 118 43 122 43 4 1 123 -42 265 -94z m1313
62 c58 -19 95 -37 95 -46 0 -7 -45 -38 -100 -68 -199 -109 -451 -247 -495
-270 -25 -14 -102 -56 -171 -94 -70 -38 -134 -69 -143 -69 -14 0 -16 19 -16
159 0 124 3 161 14 170 24 20 659 250 691 250 17 0 73 -14 125 -32z m128 -174
c-3 -10 -23 -80 -44 -156 l-39 -138 -195 -183 c-107 -100 -221 -206 -253 -235
l-58 -52 -27 20 c-117 85 -327 260 -327 271 0 9 34 32 80 54 79 38 444 229
700 366 134 72 171 84 163 53z m-1577 -192 c200 -98 403 -197 452 -220 48 -23
87 -47 87 -54 0 -15 -334 -287 -352 -287 -7 0 -42 28 -78 63 -36 34 -145 135
-242 225 -122 113 -180 173 -187 195 -41 128 -64 257 -47 257 2 0 167 -80 367
-179z m775 -496 c76 -68 145 -133 151 -143 13 -18 -4 -147 -116 -867 -16 -104
-32 -215 -36 -245 -9 -78 -20 -98 -92 -165 -52 -48 -66 -57 -73 -45 -11 17
-14 1573 -3 1583 15 16 36 1 169 -118z m-213 -674 c4 -431 5 -791 2 -798 -6
-17 -32 -1 -103 63 l-42 39 -35 235 c-19 129 -55 370 -81 535 -25 165 -48 328
-51 362 l-6 63 139 144 c77 80 146 144 154 143 13 -2 16 -101 23 -786z"/>
</g>
</svg>
