<?xml version="1.0" encoding="UTF-8" standalone="no"?>
<!-- Created with Inkscape (http://www.inkscape.org/) -->

<svg
   xmlns:dc="http://purl.org/dc/elements/1.1/"
   xmlns:cc="http://creativecommons.org/ns#"
   xmlns:rdf="http://www.w3.org/1999/02/22-rdf-syntax-ns#"
   xmlns:svg="http://www.w3.org/2000/svg"
   xmlns="http://www.w3.org/2000/svg"
   xmlns:sodipodi="http://sodipodi.sourceforge.net/DTD/sodipodi-0.dtd"
   xmlns:inkscape="http://www.inkscape.org/namespaces/inkscape"
   width="103.78886mm"
   height="92.661491mm"
   viewBox="0 0 103.78886 92.661491"
   version="1.1"
   id="svg8"
   inkscape:version="0.92.4 5da689c313, 2019-01-14"
   sodipodi:docname="coffee.svg"
   inkscape:export-filename="/home/brbl/temp/avatar_coffee.png"
   inkscape:export-xdpi="117.00512"
   inkscape:export-ydpi="117.00512">
  <defs
     id="defs2" />
  <sodipodi:namedview
     id="base"
     pagecolor="#ffffff"
     bordercolor="#666666"
     borderopacity="1.0"
     inkscape:pageopacity="0.0"
     inkscape:pageshadow="2"
     inkscape:zoom="0.95652174"
     inkscape:cx="90.960953"
     inkscape:cy="186.48884"
     inkscape:document-units="mm"
     inkscape:current-layer="layer1"
     showgrid="false"
     inkscape:snap-global="true"
     fit-margin-top="0"
     fit-margin-left="0"
     fit-margin-right="0"
     fit-margin-bottom="0"
     inkscape:window-width="1264"
     inkscape:window-height="713"
     inkscape:window-x="7"
     inkscape:window-y="55"
     inkscape:window-maximized="0" />
  <metadata
     id="metadata5">
    <rdf:RDF>
      <cc:Work
         rdf:about="">
        <dc:format>image/svg+xml</dc:format>
        <dc:type
           rdf:resource="http://purl.org/dc/dcmitype/StillImage" />
        <dc:title />
      </cc:Work>
    </rdf:RDF>
  </metadata>
  <g
     inkscape:label="Layer 1"
     inkscape:groupmode="layer"
     id="layer1"
     transform="translate(-99.488039,-135.84769)">
    <g
       id="g881">
      <path
         inkscape:connector-curvature="0"
         id="path912"
         d="m 135.67198,188.1316 -3.02745,4.03657 -2.42194,4.64206 -17.96277,6.45854 -12.10973,24.82493 102.32723,-0.40376 -7.66951,-15.94438 -7.46765,-11.50422 -6.45851,-4.84401 -16.55,-1.4127 -6.45851,-7.26583 z"
         style="fill:#58bef9;fill-opacity:1;stroke:#000000;stroke-width:1.05833333;stroke-linecap:butt;stroke-linejoin:miter;stroke-opacity:1;stroke-miterlimit:4;stroke-dasharray:none" />
      <path
         sodipodi:nodetypes="ccccccccccccccccccc"
         inkscape:connector-curvature="0"
         id="path91"
         d="m 131.23173,180.86575 4.44025,7.26585 c 3.2816,2.6836 6.13222,3.21237 8.88046,3.22926 5.83854,-0.32292 7.5912,-1.14887 9.88962,-1.4128 2.86392,-2.54203 4.40462,-4.42244 6.25668,-6.45854 v -7.26583 l 0.40366,-7.26582 c -0.0958,-4.27004 -1.18276,-7.30112 -3.43109,-8.88048 l -1.00914,-3.43109 c -1.33437,-1.64808 -2.48042,-3.86111 -4.84388,-2.42194 -1.69071,-0.0905 -3.24932,-0.84164 -5.4494,1.61463 l -4.44022,-0.80731 -0.80732,3.83474 -4.03657,1.81645 v -2.42194 c -2.79654,1.18551 -5.60207,2.36502 -5.24757,5.6512 l -2.42194,0.20192 -0.40366,9.28414 z"
         style="fill:#dea45b;fill-opacity:0.97925313;stroke:#000000;stroke-width:1.05833333;stroke-linecap:butt;stroke-linejoin:miter;stroke-opacity:1;stroke-miterlimit:4;stroke-dasharray:none" />
      <path
         inkscape:connector-curvature="0"
         id="path93"
         d="m 131.23182,180.86584 v 0 c 0,0 -3.83474,-0.20192 -4.64205,-1.21097 -0.80732,-1.00914 -3.83474,-4.44022 -3.83474,-4.44022 l -0.20193,-5.6512 3.02743,-0.20192 3.43108,4.03666 z"
         style="fill:#dea45b;fill-opacity:1;stroke:#000000;stroke-width:1.05833333;stroke-linecap:butt;stroke-linejoin:miter;stroke-opacity:1;stroke-miterlimit:4;stroke-dasharray:none" />
      <path
         inkscape:connector-curvature="0"
         id="path95"
         d="m 160.90057,176.22369 3.43108,0.60549 c 0,0 2.8256,-4.03657 2.8256,-5.6512 0,-1.61462 0,-5.65122 0,-5.65122 l -2.42194,-2.22012 -3.63291,5.65123 z"
         style="fill:#dea45b;fill-opacity:1;stroke:#000000;stroke-width:1.05833333;stroke-linecap:butt;stroke-linejoin:miter;stroke-opacity:1;stroke-miterlimit:4;stroke-dasharray:none" />
      <path
         inkscape:connector-curvature="0"
         id="path97"
         d="m 125.58044,169.36143 -4.03648,-5.85296 1.00914,-15.54082 5.85303,-9.28411 8.67865,-2.42197 11.3024,0.20192 8.47682,1.41283 c 0,0 5.85303,7.87131 5.85303,9.08228 0,1.21097 2.01828,11.90791 2.01828,11.90791 v 4.44023 l -3.63291,5.65122 -3.43109,-8.88048 -1.00914,-3.43108 -4.84388,-2.42194 -5.4494,1.61462 -4.44022,-0.80731 -0.80732,3.83474 -4.03657,1.81646 v -2.42194 l -5.24757,5.65119 -2.42194,0.20192 -0.40366,9.28414 z"
         style="fill:#000000;fill-opacity:1;stroke:#000000;stroke-width:1.05833333;stroke-linecap:butt;stroke-linejoin:miter;stroke-opacity:1;stroke-miterlimit:4;stroke-dasharray:none" />
      <path
         inkscape:connector-curvature="0"
         id="path99"
         d="m 104.38848,227.69004 9.48597,-19.77922 c 0,0 3.02743,-6.45851 4.23843,-6.86217 1.21094,-0.40365 5.85302,-4.44025 5.85302,-4.44025 l 4.44023,4.44025 v 2.01829 l -4.03657,-1.21097 -3.63291,4.23839 5.44937,-1.21097 1.81645,3.43109 -6.86216,3.02742 7.06399,-2.42194 0.20192,2.8256 -1.21097,2.42194 2.01829,1.61466 -0.20193,1.61463 -8.07313,6.45851 -3.02746,3.83474 z"
         style="fill:#dea45b;fill-opacity:1;stroke:#000000;stroke-width:1.05833333;stroke-linecap:butt;stroke-linejoin:miter;stroke-opacity:1;stroke-miterlimit:4;stroke-dasharray:none" />
      <path
         sodipodi:nodetypes="cccccccc"
         inkscape:connector-curvature="0"
         id="path103"
         d="m 135.67198,188.1316 1.61463,17.15545 11.90788,7.87131 c 0,0 6.66037,-3.02743 6.8622,-5.04571 0.20192,-2.01829 3.83474,-10.69694 3.83474,-10.69694 l -2.01829,-10.69691 -3.43108,3.22926 c -11.36743,3.1424 -15.33,0.85453 -18.77008,-1.81646 z"
         style="fill:#dea45b;fill-opacity:1;stroke:#000000;stroke-width:1.05833333;stroke-linecap:butt;stroke-linejoin:miter;stroke-opacity:1;stroke-miterlimit:4;stroke-dasharray:none" />
      <path
         sodipodi:nodetypes="cccccscccccccccc"
         inkscape:connector-curvature="0"
         id="path101"
         d="m 128.40613,201.04865 v 0 0 0 l 4.2384,-0.60548 c 0,0 -1.21097,-3.43112 0.20192,-3.43112 1.4128,0 14.53168,-1.21097 14.53168,-1.21097 l 0.40365,22.60485 -2.42194,3.43108 -11.10059,0.60549 c 0.68694,-5.89538 -7.25297,-7.42655 -5.24754,-5.04571 l -1.81636,-3.22929 6.05476,-0.80731 -0.80732,-8.07314 -4.03657,-2.22011 z"
         style="fill:#7f5319;fill-opacity:1;stroke:#050301;stroke-width:1.05833333;stroke-linecap:butt;stroke-linejoin:miter;stroke-opacity:1;stroke-miterlimit:4;stroke-dasharray:none" />
      <path
         inkscape:connector-curvature="0"
         id="path910"
         d="m 166.95545,214.36933 7.26583,1.00917 6.8622,1.00915 6.66033,11.50422 14.73351,-0.20193 -13.11888,-18.16459 -6.86217,-6.86216 -1.61462,-7.26586 -5.24757,-5.24754 v -4.03657 h -2.22012 l -1.61462,4.03657 v 3.63292 l 3.22925,3.02742 -6.05485,-0.20192 -5.65123,4.0366 0.20192,2.8256 6.66037,-2.22012 -6.66037,2.22012 0.20193,3.43108 6.86219,-1.00914 -6.66037,1.00914 1.4128,4.2384 7.46769,-0.40366 -7.66948,0.40366 z"
         style="fill:#dea45b;fill-opacity:1;stroke:#000000;stroke-width:1.05833333;stroke-linecap:butt;stroke-linejoin:miter;stroke-opacity:1;stroke-miterlimit:4;stroke-dasharray:none" />
      <path
         inkscape:connector-curvature="0"
         id="path914"
         d="m 132.64453,167.24231 2.7247,-1.4128 5.34847,-0.60548 1.91738,1.21097 -2.11921,-2.62377 -5.85303,0.70638 z"
         style="fill:#5d2f08;fill-opacity:1;stroke:none;stroke-width:1.05833333;stroke-linecap:butt;stroke-linejoin:miter;stroke-opacity:1;stroke-miterlimit:4;stroke-dasharray:none" />
      <path
         inkscape:connector-curvature="0"
         id="path916"
         d="m 148.589,165.22403 2.22015,-1.4128 4.13747,-0.40366 2.22014,0.70639 c 0,0 -1.00914,-2.62377 -1.51373,-2.62377 -0.50459,0 -5.04571,0.80731 -5.75213,0.80731 -0.70641,0 -2.01828,1.91739 -2.01828,1.91739 0,0 1.61463,2.01828 0.70638,1.00914 z"
         style="fill:#5d2f08;fill-opacity:1;stroke:none;stroke-width:1.05833333;stroke-linecap:butt;stroke-linejoin:miter;stroke-opacity:1;stroke-miterlimit:4;stroke-dasharray:none" />
      <path
         inkscape:connector-curvature="0"
         id="path918"
         d="m 139.20397,181.37033 7.46768,-0.20192 7.66948,-2.52287 -4.74298,3.93567 -5.7521,0.60549 z"
         style="fill:#ba6047;fill-opacity:1;stroke:none;stroke-width:1.05833333;stroke-linecap:butt;stroke-linejoin:miter;stroke-opacity:1;stroke-miterlimit:4;stroke-dasharray:none" />
      <path
         inkscape:connector-curvature="0"
         id="path920"
         d="m 144.14878,168.45328 -0.80732,4.33933 -1.81645,3.33015 3.83474,0.70642 3.93567,-0.40366 1.91735,-1.61463 c 0,0 -2.62377,-2.22011 -3.02739,-2.72469 -0.40369,-0.50456 -1.51373,-3.93567 -1.51373,-3.93567 z"
         style="fill:#f8a958;fill-opacity:1;stroke:none;stroke-width:1.05833333;stroke-linecap:butt;stroke-linejoin:miter;stroke-opacity:1;stroke-miterlimit:4;stroke-dasharray:none" />
      <path
         inkscape:connector-curvature="0"
         id="path922"
         d="m 133.95643,169.46243 3.12835,-1.5137 2.8256,-0.10081 1.61463,1.00915 -3.33019,1.00914 z"
         style="fill:#f2ffff;fill-opacity:1;stroke:none;stroke-width:1.05833333;stroke-linecap:butt;stroke-linejoin:miter;stroke-opacity:1;stroke-miterlimit:4;stroke-dasharray:none" />
      <path
         inkscape:connector-curvature="0"
         id="path924"
         d="m 150.20363,166.83866 2.42197,-0.90825 4.13747,0.30273 c 0,0 -2.9265,1.51373 -3.63291,1.51373 -0.70638,0 -2.92653,-0.90825 -2.92653,-0.90825 z"
         style="fill:#f2ffff;fill-opacity:1;stroke:none;stroke-width:1.05833333;stroke-linecap:butt;stroke-linejoin:miter;stroke-opacity:1;stroke-miterlimit:4;stroke-dasharray:none" />
      <ellipse
         ry="0.85777265"
         rx="1.0596014"
         cy="168.90739"
         cx="138.14438"
         id="path928"
         style="opacity:1;fill:#000000;fill-opacity:1;stroke:none;stroke-width:1.05833333;stroke-miterlimit:4;stroke-dasharray:none;stroke-dashoffset:0;stroke-opacity:1" />
      <ellipse
         style="opacity:1;fill:#000000;fill-opacity:1;stroke:none;stroke-width:1.05833333;stroke-miterlimit:4;stroke-dasharray:none;stroke-dashoffset:0;stroke-opacity:1"
         id="ellipse938"
         cx="153.28156"
         cy="166.88911"
         rx="1.0596014"
         ry="0.85777265" />
      <path
         inkscape:connector-curvature="0"
         id="path940"
         d="m 132.64453,200.44317 14.83443,-1.3119 -0.1008,-3.33019 -15.03633,1.4128 z"
         style="fill:#2e1e09;fill-opacity:1;stroke:#050301;stroke-width:1.05833333;stroke-linecap:butt;stroke-linejoin:miter;stroke-opacity:1;stroke-miterlimit:4;stroke-dasharray:none" />
      <path
         inkscape:connector-curvature="0"
         id="path942"
         d="m 133.7546,219.01142 0.50465,3.43108 11.10059,-0.60549 2.42194,-3.43108 z"
         style="fill:#2e1e09;fill-opacity:1;stroke:#050301;stroke-width:1.05833333;stroke-linecap:butt;stroke-linejoin:miter;stroke-opacity:1;stroke-miterlimit:4;stroke-dasharray:none" />
    </g>
  </g>
</svg>
