<?xml version="1.0" encoding="UTF-8" standalone="no"?>
<!-- Created with Inkscape (http://www.inkscape.org/) -->

<svg
   xmlns:dc="http://purl.org/dc/elements/1.1/"
   xmlns:cc="http://creativecommons.org/ns#"
   xmlns:rdf="http://www.w3.org/1999/02/22-rdf-syntax-ns#"
   xmlns:svg="http://www.w3.org/2000/svg"
   xmlns="http://www.w3.org/2000/svg"
   xmlns:sodipodi="http://sodipodi.sourceforge.net/DTD/sodipodi-0.dtd"
   xmlns:inkscape="http://www.inkscape.org/namespaces/inkscape"
   width="7.8217049mm"
   height="8.0036697mm"
   viewBox="0 0 7.821705 8.0036698"
   version="1.1"
   id="svg8"
   inkscape:version="0.92.4 5da689c313, 2019-01-14"
   sodipodi:docname="logo_navbar.svg"
   inkscape:export-filename="/home/brbl/public_html/MambaMentality/assets/logo_navbar.png"
   inkscape:export-xdpi="59.93"
   inkscape:export-ydpi="59.93">
  <defs
     id="defs2" />
  <sodipodi:namedview
     id="base"
     pagecolor="#ffffff"
     bordercolor="#666666"
     borderopacity="1.0"
     inkscape:pageopacity="0.0"
     inkscape:pageshadow="2"
     inkscape:zoom="5.7859374"
     inkscape:cx="-21.742879"
     inkscape:cy="5.2084169"
     inkscape:document-units="mm"
     inkscape:current-layer="layer1"
     showgrid="false"
     inkscape:window-width="1264"
     inkscape:window-height="736"
     inkscape:window-x="7"
     inkscape:window-y="31"
     inkscape:window-maximized="0"
     fit-margin-top="0"
     fit-margin-left="0"
     fit-margin-right="0"
     fit-margin-bottom="0" />
  <metadata
     id="metadata5">
    <rdf:RDF>
      <cc:Work
         rdf:about="">
        <dc:format>image/svg+xml</dc:format>
        <dc:type
           rdf:resource="http://purl.org/dc/dcmitype/StillImage" />
        <dc:title></dc:title>
      </cc:Work>
    </rdf:RDF>
  </metadata>
  <g
     inkscape:label="Layer 1"
     inkscape:groupmode="layer"
     id="layer1"
     transform="translate(-82.562124,-163.22773)">
    <path
       id="path75"
       style="fill:#fdb827;fill-opacity:1;stroke:#542583;stroke-width:0.23693627;stroke-miterlimit:4;stroke-dasharray:none;stroke-opacity:0.99585063"
       d="m 86.573733,165.54923 c -0.01415,-0.017 -0.01734,-0.12863 -0.01734,-0.60582 0,-0.57011 6.65e-4,-0.5858 0.02593,-0.61966 0.02675,-0.0358 0.08607,-0.0613 0.365922,-0.15759 0.07647,-0.0263 0.201617,-0.0715 0.278094,-0.10038 0.07647,-0.029 0.193083,-0.0719 0.25913,-0.0953 0.06605,-0.0235 0.1855,-0.0662 0.265452,-0.0947 0.07995,-0.0285 0.207937,-0.0736 0.284413,-0.10003 0.07647,-0.0264 0.215838,-0.0764 0.309694,-0.11094 0.09386,-0.0347 0.207621,-0.0758 0.252811,-0.0916 0.0452,-0.0158 0.204007,-0.0737 0.352927,-0.12901 0.357717,-0.13264 0.322692,-0.13329 0.776051,0.0143 0.193371,0.0629 0.359122,0.11441 0.368335,0.11441 0.0093,0 0.02962,0.0104 0.04534,0.0232 0.05583,0.0452 0.02918,0.0757 -0.148642,0.16991 -0.162806,0.0862 -0.337765,0.1805 -0.755662,0.40696 -0.125143,0.0678 -0.32992,0.1773 -0.45506,0.24332 -0.125142,0.0661 -0.240721,0.12834 -0.256841,0.13851 -0.01611,0.0104 -0.101439,0.0573 -0.189608,0.10456 -0.08817,0.0473 -0.268376,0.14444 -0.400469,0.21574 -0.132095,0.0713 -0.351092,0.18931 -0.486662,0.26223 -0.135571,0.0729 -0.311906,0.16824 -0.391857,0.2118 -0.437625,0.23843 -0.446927,0.2423 -0.481954,0.20009 z m -0.48505,-0.006 c -0.02085,-0.0143 -0.117557,-0.0659 -0.214889,-0.11499 -0.09734,-0.0489 -0.242383,-0.12477 -0.322334,-0.16846 -0.07995,-0.0437 -0.301794,-0.16042 -0.492981,-0.25941 -0.387456,-0.20062 -0.551019,-0.28565 -0.948042,-0.49287 -0.149475,-0.078 -0.335344,-0.17489 -0.413042,-0.2153 -0.0777,-0.0403 -0.205684,-0.10757 -0.284413,-0.14928 -0.07873,-0.0417 -0.20287,-0.10664 -0.275868,-0.14428 -0.344208,-0.17756 -0.427076,-0.22529 -0.433433,-0.24958 -0.0095,-0.0364 0.03408,-0.0843 0.08552,-0.094 0.02442,-0.005 0.173835,-0.057 0.332037,-0.1166 0.158202,-0.0596 0.331887,-0.12471 0.385967,-0.14481 0.05407,-0.02 0.120948,-0.0365 0.148593,-0.0365 0.03167,0 0.142572,0.0348 0.29985,0.0939 0.354109,0.13319 0.817685,0.30377 0.906893,0.33373 0.04171,0.014 0.146946,0.052 0.23385,0.0845 0.0869,0.0325 0.226267,0.0838 0.309693,0.11406 0.08343,0.0303 0.205725,0.0748 0.271773,0.099 0.06605,0.0242 0.175271,0.0641 0.242722,0.0888 0.223903,0.0817 0.282851,0.11325 0.299024,0.15963 0.01843,0.0529 0.02037,1.15804 0.0021,1.20607 -0.0097,0.0257 -0.02088,0.0325 -0.05372,0.0323 -0.02278,-3e-5 -0.05846,-0.0117 -0.07932,-0.026 z m -1.233463,1.45673 c -0.02282,-0.009 -0.1227,-0.0977 -0.397735,-0.34989 -0.106146,-0.0974 -0.253979,-0.231 -0.328522,-0.29705 -0.07455,-0.0661 -0.222733,-0.19973 -0.32931,-0.29705 -0.106574,-0.0974 -0.297025,-0.27083 -0.423217,-0.38554 -0.40764,-0.37057 -0.438792,-0.40216 -0.459814,-0.46639 -0.01043,-0.032 -0.05086,-0.18049 -0.08977,-0.32997 -0.164234,-0.63111 -0.167603,-0.6511 -0.112127,-0.66502 0.03408,-0.008 0.07392,0.009 0.630958,0.27977 0.132093,0.0641 0.368155,0.17749 0.524582,0.25181 0.156427,0.0743 0.307166,0.14666 0.334975,0.16076 0.04542,0.023 0.316387,0.15323 0.783714,0.37657 0.09038,0.0432 0.232587,0.11174 0.316015,0.15227 0.08343,0.0406 0.302425,0.14561 0.48666,0.23346 0.440196,0.20989 0.417033,0.19782 0.43171,0.22523 0.02257,0.0422 -0.01174,0.0923 -0.120149,0.1752 -0.05665,0.0434 -0.139965,0.10884 -0.185154,0.14564 -0.306836,0.2495 -0.988824,0.78793 -0.998013,0.78793 -0.0061,0 -0.01874,0.002 -0.02799,0.006 -0.0093,0.003 -0.02583,0.001 -0.0368,-0.003 z m 3.030526,-0.0307 c -0.07072,-0.0546 -0.475878,-0.36815 -0.624688,-0.48351 -0.04484,-0.0348 -0.134167,-0.10305 -0.198498,-0.15168 -0.320826,-0.2427 -0.436147,-0.33569 -0.45123,-0.36387 -0.02447,-0.0457 0.02304,-0.0854 0.217339,-0.18184 0.100523,-0.0498 0.322138,-0.15881 0.492469,-0.24209 0.170331,-0.0832 0.51447,-0.2583 0.764753,-0.38891 0.250283,-0.1306 0.551761,-0.28665 0.669949,-0.34677 0.11819,-0.0602 0.325812,-0.16815 0.461381,-0.24004 0.13557,-0.0719 0.343192,-0.18037 0.461381,-0.24107 0.118189,-0.0607 0.281945,-0.14536 0.363901,-0.18816 0.166586,-0.0869 0.214697,-0.0947 0.221508,-0.0357 0.0044,0.0384 -0.02767,0.16821 -0.09937,0.40195 -0.02666,0.0869 -0.08244,0.27786 -0.123947,0.42437 -0.04151,0.14652 -0.08394,0.2866 -0.09426,0.31133 -0.01032,0.0247 -0.05207,0.073 -0.09275,0.10745 -0.04069,0.0344 -0.108673,0.0962 -0.151092,0.13742 -0.04243,0.0411 -0.144071,0.13465 -0.225898,0.20766 -0.08183,0.073 -0.239402,0.21804 -0.350167,0.32233 -0.110771,0.10432 -0.223311,0.2071 -0.250102,0.22847 -0.02679,0.0213 -0.141674,0.12539 -0.255299,0.23116 -0.393142,0.36594 -0.438575,0.40736 -0.52253,0.47617 -0.04858,0.0398 -0.09681,0.0691 -0.113773,0.0691 -0.01619,0 -0.06079,-0.0242 -0.09909,-0.0538 z m -1.369698,4.11114 c -0.0057,-0.006 -0.01436,-0.94723 -0.01942,-2.08982 -0.0051,-1.14258 -0.0125,-2.19345 -0.01652,-2.33525 -0.0081,-0.28669 -0.0019,-0.32634 0.05434,-0.34311 0.05334,-0.0159 0.08775,-0.002 0.207581,0.0784 0.06184,0.0421 0.138555,0.0932 0.170472,0.11384 0.03191,0.0206 0.121966,0.0831 0.200108,0.13882 0.07814,0.0558 0.217813,0.1526 0.310376,0.21532 0.09256,0.0628 0.210751,0.14625 0.262635,0.18564 l 0.09433,0.0716 -0.0074,0.092 c -0.0041,0.0505 -0.02155,0.15894 -0.03881,0.24075 -0.02977,0.1411 -0.05049,0.2469 -0.09033,0.4611 -0.03768,0.20254 -0.09764,0.50598 -0.120502,0.60984 -0.02375,0.10791 -0.0416,0.1999 -0.08179,0.42144 -0.01136,0.0628 -0.02853,0.15196 -0.03813,0.19832 -0.0096,0.0464 -0.02647,0.13115 -0.03753,0.1884 -0.01101,0.0573 -0.03375,0.17106 -0.05046,0.25287 -0.0167,0.0818 -0.04499,0.22459 -0.06286,0.31731 -0.01788,0.0927 -0.04085,0.20651 -0.05106,0.25286 -0.0102,0.0464 -0.02434,0.12223 -0.0314,0.16858 -0.02447,0.16076 -0.05132,0.29278 -0.06978,0.34313 -0.016,0.0435 -0.03576,0.0635 -0.14327,0.14378 -0.06859,0.0513 -0.182088,0.1367 -0.252216,0.18987 -0.123368,0.0935 -0.165263,0.11229 -0.188367,0.0843 z m -0.290087,-0.0121 c -0.286542,-0.17169 -0.405039,-0.25119 -0.425293,-0.28536 -0.01055,-0.0177 -0.03706,-0.12367 -0.05901,-0.23547 -0.02195,-0.1118 -0.05641,-0.28361 -0.07656,-0.38178 -0.02016,-0.0982 -0.04292,-0.21642 -0.05061,-0.26277 -0.0077,-0.0464 -0.02722,-0.14676 -0.04341,-0.22312 -0.01619,-0.0764 -0.03299,-0.16559 -0.03731,-0.19832 -0.0043,-0.0327 -0.01338,-0.0818 -0.02011,-0.10908 -0.01454,-0.0588 -0.07204,-0.33999 -0.08113,-0.39665 -0.0095,-0.0591 -0.04385,-0.23641 -0.06438,-0.33219 -0.01,-0.0464 -0.03849,-0.19584 -0.06343,-0.33218 -0.03955,-0.21619 -0.0928,-0.48157 -0.132305,-0.65943 -0.03707,-0.16689 -0.06541,-0.35759 -0.06072,-0.40853 l 0.0053,-0.0582 0.467739,-0.36902 c 0.257254,-0.20295 0.486443,-0.38811 0.509306,-0.41145 0.02286,-0.0234 0.05774,-0.049 0.0775,-0.057 0.04394,-0.0178 0.107907,-0.019 0.121762,-0.002 0.01043,0.0126 0.01259,0.15048 0.0471,2.97236 0.01078,0.8808 0.02301,1.63402 0.02718,1.67382 0.0079,0.0755 -0.0109,0.121 -0.05031,0.121 -0.0095,0 -0.05061,-0.02 -0.09135,-0.0444 z"
       inkscape:connector-curvature="0"
       inkscape:export-xdpi="59.93"
       inkscape:export-ydpi="59.93" />
  </g>
</svg>
