<?xml version="1.0" encoding="UTF-8" standalone="no"?>
<svg
   xmlns:dc="http://purl.org/dc/elements/1.1/"
   xmlns:cc="http://creativecommons.org/ns#"
   xmlns:rdf="http://www.w3.org/1999/02/22-rdf-syntax-ns#"
   xmlns:svg="http://www.w3.org/2000/svg"
   xmlns="http://www.w3.org/2000/svg"
   id="svg8"
   version="1.1"
   viewBox="0 0 16.933334 20.296539"
   height="20.296539mm"
   width="16.933334mm">
  <defs
     id="defs2" />
  <metadata
     id="metadata5">
    <rdf:RDF>
      <cc:Work
         rdf:about="">
        <dc:format>image/svg+xml</dc:format>
        <dc:type
           rdf:resource="http://purl.org/dc/dcmitype/StillImage" />
        <dc:title></dc:title>
      </cc:Work>
    </rdf:RDF>
  </metadata>
  <g
     transform="translate(-78.00631,-156.48005)"
     id="layer1">
    <path
       id="path75"
       d="m 85.920281,176.65002 c -0.639953,-0.48879 -0.904601,-0.71514 -0.949837,-0.8124 -0.02345,-0.0504 -0.08276,-0.35211 -0.131801,-0.67041 -0.04904,-0.31831 -0.125986,-0.80741 -0.170992,-1.0869 -0.04501,-0.27949 -0.09587,-0.61614 -0.113021,-0.74812 -0.01716,-0.13198 -0.06079,-0.41782 -0.09696,-0.6352 -0.03618,-0.21738 -0.07368,-0.47146 -0.08334,-0.56462 -0.0097,-0.0932 -0.02988,-0.23291 -0.04492,-0.31054 -0.03246,-0.16754 -0.160902,-0.96796 -0.181199,-1.12924 -0.02119,-0.16837 -0.09793,-0.67309 -0.143791,-0.94575 -0.0222,-0.13198 -0.08595,-0.55756 -0.14166,-0.94573 -0.08834,-0.61548 -0.207254,-1.37102 -0.295488,-1.87737 -0.08279,-0.47514 -0.146094,-1.01807 -0.135604,-1.1631 l 0.01199,-0.16581 1.044632,-1.05058 c 0.574547,-0.57782 1.086409,-1.10496 1.13747,-1.17142 0.05106,-0.0665 0.128949,-0.1395 0.173085,-0.16232 0.09815,-0.0508 0.241001,-0.054 0.271943,-0.006 0.02322,0.0359 0.0281,0.42843 0.105183,8.46226 0.02406,2.50762 0.05138,4.65202 0.0607,4.76533 0.01772,0.21522 -0.02444,0.34449 -0.112361,0.34449 -0.02123,0 -0.113036,-0.0569 -0.204024,-0.12636 z m 0.647873,0.0346 c -0.01256,-0.0194 -0.03206,-2.69677 -0.04335,-5.9497 -0.01129,-3.25292 -0.0279,-6.2447 -0.0369,-6.64841 -0.01822,-0.81619 -0.0042,-0.92907 0.121362,-0.97681 0.119132,-0.0453 0.195975,-0.008 0.463605,0.2232 0.138115,0.11947 0.309444,0.26532 0.380727,0.3241 0.07128,0.0588 0.272395,0.23664 0.446915,0.39524 0.174524,0.15859 0.486458,0.43445 0.693186,0.61301 0.206729,0.17856 0.470684,0.41639 0.58656,0.52852 l 0.210689,0.20386 -0.01657,0.26195 c -0.0091,0.14407 -0.04813,0.45251 -0.08667,0.68542 -0.06648,0.40171 -0.112768,0.70293 -0.201753,1.31274 -0.08415,0.57665 -0.218056,1.44052 -0.269125,1.73621 -0.05306,0.3072 -0.09293,0.56909 -0.182664,1.19982 -0.02542,0.17856 -0.06371,0.43264 -0.08513,0.56462 -0.02141,0.13198 -0.05913,0.37336 -0.08381,0.53639 -0.02467,0.16304 -0.07538,0.48699 -0.112678,0.71989 -0.03731,0.23291 -0.100474,0.63944 -0.140384,0.9034 -0.03991,0.26396 -0.09123,0.58791 -0.114043,0.71989 -0.0228,0.13198 -0.05437,0.34795 -0.07012,0.47993 -0.05465,0.45768 -0.114605,0.83354 -0.155847,0.97687 -0.03573,0.1242 -0.07986,0.18065 -0.319973,0.40935 -0.153189,0.14591 -0.406671,0.38916 -0.563294,0.54055 -0.275526,0.26631 -0.369093,0.31968 -0.420694,0.23996 z m 3.059045,-12.11112 c -0.157951,-0.12185 -1.062812,-0.8222 -1.395162,-1.07984 -0.100147,-0.0776 -0.299643,-0.23009 -0.443319,-0.33877 -0.716524,-0.54204 -0.974078,-0.74973 -1.007764,-0.81267 -0.05464,-0.10211 0.05148,-0.19089 0.4854,-0.40611 0.224513,-0.11136 0.719452,-0.35466 1.099865,-0.54068 0.380412,-0.18602 1.149003,-0.57686 1.707977,-0.86855 0.558975,-0.29168 1.232289,-0.6402 1.496247,-0.77449 0.263962,-0.13429 0.727656,-0.37553 1.030434,-0.53609 0.302778,-0.16056 0.766472,-0.40283 1.030434,-0.53838 0.263958,-0.13555 0.629688,-0.32466 0.812727,-0.42025 0.372047,-0.19429 0.479498,-0.21164 0.494707,-0.0798 0.0099,0.0857 -0.06179,0.37568 -0.221915,0.89767 -0.05954,0.19409 -0.184108,0.6206 -0.276823,0.94781 -0.09271,0.32721 -0.187445,0.64009 -0.210512,0.6953 -0.02306,0.0552 -0.116282,0.16319 -0.207141,0.23995 -0.09086,0.0768 -0.242706,0.21486 -0.337443,0.3069 -0.09474,0.092 -0.321765,0.30072 -0.504516,0.46376 -0.182746,0.16303 -0.534669,0.48698 -0.782051,0.71989 -0.247382,0.23291 -0.498738,0.46252 -0.558569,0.51025 -0.05983,0.0477 -0.316412,0.28006 -0.570179,0.51627 -0.878033,0.81731 -0.9795,0.90978 -1.167004,1.06347 -0.108494,0.0889 -0.216215,0.15438 -0.254097,0.15438 -0.03618,0 -0.135753,-0.054 -0.221296,-0.11998 z m -6.768289,0.0686 c -0.05097,-0.0219 -0.274036,-0.21817 -0.888292,-0.78144 -0.237059,-0.21738 -0.567228,-0.51592 -0.733711,-0.66343 -0.166483,-0.1475 -0.497445,-0.44605 -0.735472,-0.66343 -0.238026,-0.21737 -0.663366,-0.60485 -0.945199,-0.86104 -0.910413,-0.8276 -0.979986,-0.89817 -1.026936,-1.04163 -0.02339,-0.0715 -0.113612,-0.4031 -0.200484,-0.73693 -0.366794,-1.40952 -0.374321,-1.45416 -0.250426,-1.48525 0.07611,-0.0191 0.1651,0.0204 1.409162,0.62482 0.295014,0.14334 0.822229,0.39643 1.171588,0.5624 0.349359,0.16598 0.686015,0.32755 0.748123,0.35904 0.101418,0.0514 0.706608,0.34222 1.750326,0.841 0.201852,0.0965 0.519451,0.24949 0.705776,0.34008 0.186325,0.0906 0.675428,0.32522 1.086896,0.52142 0.983119,0.46877 0.931387,0.44178 0.964167,0.50303 0.05042,0.0942 -0.02622,0.20595 -0.268338,0.39126 -0.12651,0.0968 -0.312593,0.2432 -0.413519,0.32527 -0.685278,0.55723 -2.208411,1.75975 -2.22893,1.75975 -0.01372,0 -0.04186,0.005 -0.06253,0.0121 -0.02068,0.007 -0.05767,0.003 -0.0822,-0.007 z m 2.754781,-3.25341 c -0.04658,-0.0318 -0.26255,-0.14734 -0.479929,-0.25671 -0.217379,-0.10937 -0.541329,-0.27868 -0.719891,-0.37625 -0.178562,-0.0976 -0.674017,-0.35828 -1.101011,-0.57937 -0.865331,-0.44804 -1.23063,-0.63795 -2.117329,-1.10074 -0.333833,-0.17423 -0.748946,-0.39062 -0.922474,-0.48085 -0.173529,-0.0902 -0.459369,-0.24027 -0.6352,-0.33341 -0.17583,-0.0931 -0.453084,-0.23815 -0.616118,-0.32224 -0.768743,-0.39655 -0.953819,-0.50312 -0.968015,-0.5574 -0.02126,-0.0813 0.0761,-0.18827 0.191017,-0.20983 0.05454,-0.0102 0.388238,-0.12742 0.741561,-0.26042 0.353323,-0.13299 0.741227,-0.27852 0.862008,-0.3234 0.120783,-0.0449 0.270121,-0.0816 0.331864,-0.0816 0.07074,0 0.318417,0.0775 0.669674,0.20965 0.79086,0.29746 1.826195,0.67843 2.02543,0.74532 0.09316,0.0313 0.328186,0.11621 0.522275,0.18876 0.194088,0.0725 0.505336,0.18721 0.691661,0.25482 0.186324,0.0676 0.45946,0.16712 0.606967,0.22113 0.147508,0.054 0.391447,0.14321 0.542089,0.19822 0.500059,0.18261 0.631711,0.2529 0.667833,0.35652 0.04117,0.1181 0.04549,2.58635 0.0047,2.6936 -0.02184,0.0575 -0.04663,0.0724 -0.119982,0.0722 -0.05085,-1e-4 -0.130561,-0.0262 -0.177142,-0.058 z m 1.083295,0.0115 c -0.03161,-0.0381 -0.03874,-0.28729 -0.03874,-1.35302 0,-1.27327 0.0015,-1.3083 0.05792,-1.38391 0.05975,-0.08 0.192222,-0.13708 0.817241,-0.35198 0.170797,-0.0587 0.450286,-0.15962 0.621086,-0.2242 0.170797,-0.0646 0.431227,-0.1604 0.578735,-0.21292 0.147508,-0.0525 0.41429,-0.14769 0.592852,-0.21148 0.178562,-0.0638 0.464399,-0.1643 0.635199,-0.22334 0.170797,-0.059 0.482045,-0.17059 0.691661,-0.24788 0.209616,-0.0773 0.463694,-0.16928 0.564621,-0.20442 0.100927,-0.0351 0.455625,-0.16478 0.788219,-0.28811 0.798914,-0.29625 0.72069,-0.29769 1.733209,0.0319 0.431868,0.14057 0.802051,0.25558 0.822629,0.25558 0.02059,0 0.06615,0.0232 0.101261,0.0517 0.124692,0.10096 0.06516,0.16902 -0.331972,0.37948 -0.363607,0.19269 -0.754357,0.40313 -1.687677,0.9089 -0.279489,0.15145 -0.736832,0.396 -1.016317,0.54343 -0.279489,0.14744 -0.537617,0.28663 -0.573621,0.30933 -0.03599,0.0227 -0.22656,0.12779 -0.423465,0.23356 -0.196905,0.10578 -0.599383,0.32261 -0.894396,0.48186 -0.295016,0.15924 -0.784117,0.42279 -1.086895,0.58566 -0.302781,0.16288 -0.696602,0.37573 -0.875164,0.47302 -0.977378,0.53251 -0.998154,0.54114 -1.076381,0.44687 z"
       style="fill:#fdb827;stroke-width:0.52916667;fill-opacity:1;stroke:#542583;stroke-opacity:0.99585062;stroke-miterlimit:4;stroke-dasharray:none" />
  </g>
</svg>
