<?xml version="1.0" encoding="UTF-8" standalone="no"?>
<!-- Created with Inkscape (http://www.inkscape.org/) -->

<svg
   xmlns:dc="http://purl.org/dc/elements/1.1/"
   xmlns:cc="http://creativecommons.org/ns#"
   xmlns:rdf="http://www.w3.org/1999/02/22-rdf-syntax-ns#"
   xmlns:svg="http://www.w3.org/2000/svg"
   xmlns="http://www.w3.org/2000/svg"
   xmlns:sodipodi="http://sodipodi.sourceforge.net/DTD/sodipodi-0.dtd"
   xmlns:inkscape="http://www.inkscape.org/namespaces/inkscape"
   version="1.1"
   id="svg1739"
   width="192.5502"
   height="207.79004"
   viewBox="0 0 192.5502 207.79004"
   sodipodi:docname="normal.svg"
   inkscape:version="0.92.4 5da689c313, 2019-01-14"
   inkscape:export-filename="/home/brbl/temp/avatar_normal.png"
   inkscape:export-xdpi="239.31421"
   inkscape:export-ydpi="239.31421">
  <metadata
     id="metadata1745">
    <rdf:RDF>
      <cc:Work
         rdf:about="">
        <dc:format>image/svg+xml</dc:format>
        <dc:type
           rdf:resource="http://purl.org/dc/dcmitype/StillImage" />
        <dc:title />
      </cc:Work>
    </rdf:RDF>
  </metadata>
  <defs
     id="defs1743" />
  <sodipodi:namedview
     pagecolor="#ffffff"
     bordercolor="#666666"
     borderopacity="1"
     objecttolerance="10"
     gridtolerance="10"
     guidetolerance="10"
     inkscape:pageopacity="0"
     inkscape:pageshadow="2"
     inkscape:window-width="1264"
     inkscape:window-height="736"
     id="namedview1741"
     showgrid="false"
     inkscape:snap-global="false"
     fit-margin-top="0"
     fit-margin-left="0"
     fit-margin-right="0"
     fit-margin-bottom="0"
     inkscape:zoom="1.6248434"
     inkscape:cx="25.240133"
     inkscape:cy="121.75222"
     inkscape:window-x="7"
     inkscape:window-y="31"
     inkscape:window-maximized="0"
     inkscape:current-layer="svg1739" />
  <path
     style="fill:#836256;fill-opacity:1;stroke:#000000;stroke-width:4;stroke-linecap:butt;stroke-linejoin:miter;stroke-miterlimit:4;stroke-dasharray:none;stroke-opacity:1"
     d="m 55.220952,80.843637 -4.61583,-1.846331 -0.615443,8.308492 8.00077,12.001157 3.07722,3.692665 2.461776,-1.84633 7.077605,18.1556 5.538995,11.69343 5.846717,5.84672 10.154825,5.23127 11.077993,-0.92317 13.23204,-10.15482 6.76989,-10.77027 5.53899,-13.84749 4.30811,-3.38494 7.38533,-11.693436 2.46177,-9.847103 -5.84672,-3.692663 -5.23127,8.308493 -3.07722,15.386099 -0.92316,-26.156368 -4.61583,3.07722 1.53861,-5.231274 -2.7695,-1.846331 -6.15444,5.846717 -7.38533,0.615444 5.23128,-6.154439 -7.69305,3.384941 -41.234748,7.693049 z"
     id="path1751"
     inkscape:connector-curvature="0" />
  <path
     style="fill:#14141e;fill-opacity:1;stroke:#000000;stroke-width:4;stroke-linecap:butt;stroke-linejoin:miter;stroke-miterlimit:4;stroke-dasharray:none;stroke-opacity:1"
     d="m 51.83601,32.53129 -7.385327,17.540152 1.230888,16.924707 9.231659,4.61583 0.307722,9.231658 5.538995,6.462161 2.769498,13.847492 1.230887,-18.463321 c 0,0 16.616986,0.923166 18.463318,0 1.846332,-0.923166 22.77143,-7.693049 22.77143,-7.693049 l 7.69305,-3.384941 -5.23128,6.154439 7.38533,-0.615444 6.15444,-5.846717 2.7695,1.846331 -1.53861,5.231274 4.61583,-3.07722 0.92316,11.077991 0.92317,8.923936 -0.92317,6.154441 3.07722,-15.386099 5.23127,-8.308493 1.23089,-8.000771 -0.92316,-6.769883 c 0,0 2.76949,2.154054 2.76949,0.923166 0,-1.230888 0.30773,-9.231659 0.30773,-9.231659 l 0.30772,-6.769883 3.38494,2.154054 3.38494,-4.308108 -10.15482,-7.077605 8.30849,-0.307722 c 0,0 -11.38571,-7.077605 -12.6166,-7.693049 -1.23089,-0.615444 -12.92432,-10.154824 -12.92432,-10.154824 l -12.92433,-0.307722 5.23128,-4.61583 -4.92355,-8.308492 v 7.077605 L 98.917468,7.605812 86.300869,6.0672022 73.991991,11.606197 l -3.692663,4.923551 -6.769883,2.769498 -4.308108,-2.461776 1.53861,5.231274 z"
     id="path1749"
     inkscape:connector-curvature="0" />
  <path
     style="fill:#12151e;fill-opacity:1;stroke:#000000;stroke-width:4;stroke-linecap:butt;stroke-linejoin:miter;stroke-miterlimit:4;stroke-dasharray:none;stroke-opacity:1"
     d="m 72.145659,122.69383 -4.615829,16.00154 -38.465245,17.84787 -16.309263,11.69344 -7.6930493,17.23243 -2.7694976,20.30965 188.0181149,-0.92317 -4.3081,-37.8498 -12.6166,-8.00077 -7.69305,-3.69267 -23.69459,-9.8471 -7.69305,-4.30811 -5.539,-5.23127 -5.53899,-15.69382 -3.69267,18.1556 -18.46331,19.6942 -26.771817,-24.61775 z"
     id="path2296"
     inkscape:connector-curvature="0" />
  <path
     style="fill:#6c5b51;fill-opacity:1;stroke:#000000;stroke-width:4;stroke-linecap:butt;stroke-linejoin:miter;stroke-miterlimit:4;stroke-dasharray:none;stroke-opacity:1"
     d="m 72.145659,122.69383 2.154054,10.77027 26.771817,24.61775 18.46331,-19.6942 3.69267,-18.1556 -6.76989,10.77027 -13.23204,10.15482 -11.077993,0.92317 -10.154825,-5.23127 -5.846717,-5.84672 z"
     id="path2298"
     inkscape:connector-curvature="0" />
  <path
     style="fill:#261a18;fill-opacity:1;stroke:none;stroke-width:4;stroke-linecap:butt;stroke-linejoin:miter;stroke-miterlimit:4;stroke-dasharray:none;stroke-opacity:1"
     d="m 71.376355,93.460238 6.923744,-0.769305 8.462353,2.923358 3.846525,0.769305 -6.3083,-5.385134 -11.385713,-2.000193 z"
     id="path2300"
     inkscape:connector-curvature="0" />
  <path
     style="fill:#261a18;fill-opacity:1;stroke:none;stroke-width:4;stroke-linecap:butt;stroke-linejoin:miter;stroke-miterlimit:4;stroke-dasharray:none;stroke-opacity:1"
     d="m 101.22539,95.306569 c 1.23088,-0.307722 4.92355,-2.154053 5.69285,-2.154053 0.76931,0 6.76989,-0.615444 7.38533,-0.461583 0.61544,0.153861 5.38513,2.154053 5.38513,2.154053 l 2.0002,0.615444 -2.0002,-7.385327 -8.46235,1.53861 -6.92374,1.384749 z"
     id="path2302"
     inkscape:connector-curvature="0" />
  <path
     style="fill:#321915;fill-opacity:1;stroke:none;stroke-width:4;stroke-linecap:butt;stroke-linejoin:miter;stroke-miterlimit:4;stroke-dasharray:none;stroke-opacity:1"
     d="m 72.145659,96.99904 c 0.615444,0.615444 6.15444,4.30811 6.15444,4.30811 l 7.693049,-0.46159 1.384748,-2.461771 -6.154439,1.077027 -4.461968,-0.307722 z"
     id="path2304"
     inkscape:connector-curvature="0" />
  <path
     style="fill:#321915;fill-opacity:1;stroke:none;stroke-width:4;stroke-linecap:butt;stroke-linejoin:miter;stroke-miterlimit:4;stroke-dasharray:none;stroke-opacity:1"
     d="m 104.30261,99.614677 c 0,0 5.23127,2.154053 6.92374,2.307923 1.69247,0.15386 6.46216,-2.615645 6.46216,-2.615645 l 1.53861,-2.307915 c 0,0 -5.07741,1.846332 -6.3083,2.307915 -1.23089,0.461583 -4.92355,0.307722 -5.53899,0.307722 -0.61545,0 -3.07722,0 -3.07722,0 z"
     id="path2306"
     inkscape:connector-curvature="0" />
  <path
     style="fill:#391820;fill-opacity:1;stroke:none;stroke-width:4;stroke-linecap:butt;stroke-linejoin:miter;stroke-miterlimit:4;stroke-dasharray:none;stroke-opacity:1"
     d="m 86.916313,127.1558 6.15444,-0.92317 11.385717,0.61544 -2.30792,3.07722 c 0,0 -7.84691,1.38475 -8.616215,1.38475 -0.769304,0 -6.000578,-2.61563 -6.000578,-2.61563 z"
     id="path2310"
     inkscape:connector-curvature="0" />
  <path
     style="fill:#96736a;fill-opacity:1;stroke:none;stroke-width:4;stroke-linecap:butt;stroke-linejoin:miter;stroke-miterlimit:4;stroke-dasharray:none;stroke-opacity:1"
     d="m 93.840057,100.84556 -1.69247,9.69325 -4.61583,2.46178 -0.307722,4.00038 3.538803,2.61564 4.923551,0.30772 8.462351,-1.23089 1.38475,-3.84652 -3.07722,-4.15425 -2.923352,-0.46158 -2.7695,-9.53939 -0.15386,-2.000189 -2.154057,0.307722 z"
     id="path2312"
     inkscape:connector-curvature="0" />
</svg>
