<?xml version="1.0" encoding="UTF-8" standalone="no"?>
<!-- Created with Inkscape (http://www.inkscape.org/) -->

<svg
   xmlns:dc="http://purl.org/dc/elements/1.1/"
   xmlns:cc="http://creativecommons.org/ns#"
   xmlns:rdf="http://www.w3.org/1999/02/22-rdf-syntax-ns#"
   xmlns:svg="http://www.w3.org/2000/svg"
   xmlns="http://www.w3.org/2000/svg"
   xmlns:sodipodi="http://sodipodi.sourceforge.net/DTD/sodipodi-0.dtd"
   xmlns:inkscape="http://www.inkscape.org/namespaces/inkscape"
   version="1.1"
   id="svg1070"
   width="344.15652"
   height="399.47855"
   viewBox="0 0 344.15652 399.47855"
   sodipodi:docname="sleep.svg"
   inkscape:version="0.92.4 5da689c313, 2019-01-14"
   inkscape:export-filename="/home/brbl/temp/avatar_sleep.png"
   inkscape:export-xdpi="133.89256"
   inkscape:export-ydpi="133.89256">
  <metadata
     id="metadata1076">
    <rdf:RDF>
      <cc:Work
         rdf:about="">
        <dc:format>image/svg+xml</dc:format>
        <dc:type
           rdf:resource="http://purl.org/dc/dcmitype/StillImage" />
        <dc:title />
      </cc:Work>
    </rdf:RDF>
  </metadata>
  <defs
     id="defs1074" />
  <sodipodi:namedview
     pagecolor="#ffffff"
     bordercolor="#666666"
     borderopacity="1"
     objecttolerance="10"
     gridtolerance="10"
     guidetolerance="10"
     inkscape:pageopacity="0"
     inkscape:pageshadow="2"
     inkscape:window-width="1264"
     inkscape:window-height="713"
     id="namedview1072"
     showgrid="false"
     inkscape:snap-global="true"
     inkscape:zoom="0.80209206"
     inkscape:cx="-72.870588"
     inkscape:cy="167.08771"
     inkscape:window-x="7"
     inkscape:window-y="55"
     inkscape:window-maximized="0"
     inkscape:current-layer="svg1070"
     fit-margin-top="0"
     fit-margin-left="0"
     fit-margin-right="0"
     fit-margin-bottom="0" />
  <g
     id="g1427">
    <path
       inkscape:connector-curvature="0"
       id="path1080"
       d="m 72.12863,220.01692 4.407891,42.31575 19.394721,41.43417 20.276288,30.85523 30.85524,8.81578 51.13152,-19.39472 31.73682,-34.38154 11.46051,-27.32892 10.57894,2.64473 14.10525,-11.46051 21.15787,-25.56577 3.52631,-16.74998 -9.69736,-8.81578 -12.34209,-0.88158 -22.03945,30.85523 -7.9342,22.03945 1.76315,-35.26312 -8.81578,-11.46051 v -41.43417 l -68.76309,-1.76316 -51.13153,14.10525 -19.394718,8.81578 -6.171042,28.2105 -0.881578,-32.61839 -7.934203,-3.52631 v 14.98682 l -5.289469,14.10525 -5.289468,-29.97365 -5.289469,-12.34209 -11.460515,4.40789 0.881578,20.27629 15.868406,22.92103 z"
       style="fill:#b48b57;fill-opacity:0.97510376;stroke:#000000;stroke-width:4;stroke-linecap:butt;stroke-linejoin:miter;stroke-miterlimit:4;stroke-dasharray:none;stroke-opacity:1" />
    <path
       sodipodi:nodetypes="cccccccccccccccccccccccccccccccc"
       inkscape:connector-curvature="0"
       id="path1082"
       d="m 21.878679,93.951255 28.210499,28.210495 5.289469,22.03945 6.171046,22.03946 10.578937,42.31574 4.628285,-14.10525 0.661184,-14.98682 7.934203,3.52631 0.881578,32.61839 6.171042,-28.2105 19.394718,-8.81578 51.13153,-14.10525 68.76309,1.76316 v 41.43417 l 8.81578,11.46051 -1.76315,35.26312 29.97365,-52.89468 11.46052,-21.15788 14.98682,-28.21049 8.81578,-31.73682 L 288.11526,78.964428 272.24685,54.280241 242.2732,20.780274 226.40479,5.7934458 180.56273,0.50397774 123.26016,8.4381808 82.707567,27.832899 63.312849,46.346038 48.326022,67.503912 29.812882,94.832833 21.878679,77.201271 Z"
       style="fill:#090909;fill-opacity:1;stroke:#000000;stroke-width:4;stroke-linecap:butt;stroke-linejoin:miter;stroke-miterlimit:4;stroke-dasharray:none;stroke-opacity:1" />
    <path
       inkscape:connector-curvature="0"
       id="path1084"
       d="m 241.39162,262.33267 -14.10525,59.94731 5.28947,-16.74999 4.40789,14.98683 -74.05256,56.421 -20.27629,6.17104 -23.80261,-27.32892 -3.52632,-11.46051 0.88158,-9.69736 30.85524,8.81578 51.13152,-19.39472 31.73682,-34.38154 z"
       style="fill:#a97d4d;fill-opacity:1;stroke:#000000;stroke-width:4;stroke-linecap:butt;stroke-linejoin:miter;stroke-miterlimit:4;stroke-dasharray:none;stroke-opacity:1" />
    <path
       inkscape:connector-curvature="0"
       id="path1086"
       d="m 95.931242,303.76684 -79.342031,52.0131 -15.86840557,42.31575 342.65790457,0.88158 0.27597,-51.13153 -47.60522,-18.51314 -22.03945,-2.64473 -14.10525,6.17104 c 0,0 8.81578,-29.09207 7.05263,-32.61839 -1.76316,-3.52631 -4.4079,-15.8684 -4.4079,-15.8684 l -10.57893,-19.39472 -10.57894,-2.64473 -4.40789,58.18415 -74.05256,56.421 -20.27629,6.17104 -23.80261,-27.32892 -2.64474,-21.15787 z"
       style="fill:#340c0b;fill-opacity:1;stroke:#000000;stroke-width:4;stroke-linecap:butt;stroke-linejoin:miter;stroke-miterlimit:4;stroke-dasharray:none;stroke-opacity:1" />
    <path
       inkscape:connector-curvature="0"
       id="path1631"
       d="m 131.19436,247.34584 c -3.52631,3.52631 -11.46052,23.80261 -11.46052,23.80261 l -5.28946,9.69736 14.98682,8.81578 22.92103,2.64473 9.69736,-9.69736 -8.81578,-14.10525 0.88158,-16.74998 -16.74998,-12.34209 z"
       style="fill:#dcb888;fill-opacity:1;stroke:none;stroke-width:4;stroke-linecap:butt;stroke-linejoin:miter;stroke-miterlimit:4;stroke-dasharray:none;stroke-opacity:1" />
    <path
       inkscape:connector-curvature="0"
       id="path1633"
       d="m 158.52328,230.59586 19.39472,-2.64474 34.38154,8.81578 9.69736,2.64474 -11.46051,-13.22367 -28.2105,-7.05263 -22.03945,3.52631 z"
       style="fill:#3b1e05;fill-opacity:1;stroke:none;stroke-width:4;stroke-linecap:butt;stroke-linejoin:miter;stroke-miterlimit:4;stroke-dasharray:none;stroke-opacity:1" />
    <path
       inkscape:connector-curvature="0"
       id="path1635"
       d="m 128.94861,228.17393 c -1.24674,-2.18179 -8.41549,-8.41549 -8.41549,-8.41549 l -19.63615,-3.42853 -10.285608,-4.98696 -7.168749,-6.2337 4.051904,-8.41549 c 0,0 6.545385,9.03886 9.350545,9.66223 2.80517,0.62337 22.752998,8.10381 22.752998,8.10381 z"
       style="fill:#2a0f00;fill-opacity:1;stroke:none;stroke-width:4;stroke-linecap:butt;stroke-linejoin:miter;stroke-miterlimit:4;stroke-dasharray:none;stroke-opacity:1" />
    <path
       inkscape:connector-curvature="0"
       id="path1637"
       d="m 166.03912,235.34269 12.77908,11.84402 9.03886,4.67528 24.31142,-11.22066 -23.99974,7.16875 -8.41549,-3.42853 z"
       style="fill:#442207;fill-opacity:1;stroke:none;stroke-width:4;stroke-linecap:butt;stroke-linejoin:miter;stroke-miterlimit:4;stroke-dasharray:none;stroke-opacity:1" />
    <path
       inkscape:connector-curvature="0"
       id="path1639"
       d="m 89.052942,223.49866 c 0,0 9.35055,9.97392 11.532338,10.59729 2.1818,0.62337 8.41549,1.24674 8.41549,1.24674 l 15.58425,-7.16876 -3.42853,-1.55842 -13.71414,4.0519 c 0,0 -5.61033,0.31169 -6.85707,-0.62337 -1.246738,-0.93505 -11.532338,-6.54538 -11.532338,-6.54538 z"
       style="fill:#442207;fill-opacity:1;stroke:none;stroke-width:4;stroke-linecap:butt;stroke-linejoin:miter;stroke-miterlimit:4;stroke-dasharray:none;stroke-opacity:1" />
    <path
       inkscape:connector-curvature="0"
       id="path1641"
       d="m 111.80594,300.48483 8.41549,15.27257 c 0,0 10.90897,2.18179 12.4674,2.80516 1.55842,0.62337 13.40245,1.55842 13.40245,1.55842 l 17.14267,-8.1038 -14.96088,0.31168 -14.96087,-1.55842 -10.2856,-2.49348 z"
       style="fill:#623619;fill-opacity:1;stroke:none;stroke-width:4;stroke-linecap:butt;stroke-linejoin:miter;stroke-miterlimit:4;stroke-dasharray:none;stroke-opacity:1" />
    <path
       inkscape:connector-curvature="0"
       id="path1643"
       d="m 227.28637,322.27998 5.28947,-16.74999 4.40789,14.98683 4.40789,-58.18415 z"
       style="fill:#1a0606;fill-opacity:1;stroke:none;stroke-width:4;stroke-linecap:butt;stroke-linejoin:miter;stroke-miterlimit:4;stroke-dasharray:none;stroke-opacity:1" />
  </g>
</svg>
